/* XPM */
static char * 4digits_xpm[] = {
"48 48 2 1",
"  c None",
". c #FF3527",
"                                                ",
"                                                ",
"                                                ",
"                           ...                  ",
"                            ...                 ",
"                            ...                 ",
"                            ...                 ",
"                            ...                 ",
"                 ...        ...                 ",
"          ..........        ...    .            ",
"          ....              ... ......          ",
"           ..              .............        ",
"           ..           .......     ...         ",
"           ..  ....         ..      ...         ",
"           .......          ..      ..          ",
"           ..               ..     ..........   ",
"           ..               ..................  ",
"           ..       .............  ..           ",
"           .......   ....   ..     ..           ",
"           ......           ..     ..           ",
"           ..               ..     ..           ",
"           ..               .........           ",
"           ..     .      ...........            ",
"           ..........  ........                 ",
"        .........           ...                 ",
"  ...........               ...   .             ",
"  ....     ...              .........           ",
"           ...         ...........              ",
"           ..           ... ...                 ",
"          ...   ..          ...                 ",
"          ..     ...        ...    .......      ",
"         ..    .....        ...............     ",
"        ........  ...  ............    ....     ",
"       .......      ...........                 ",
"     .......                ...                 ",
"     .....                  ...                 ",
"      .                     ...                 ",
"                            ...                 ",
"                            ..                  ",
"                            ..                  ",
"                            ..                  ",
"                             .                  ",
"                             .                  ",
"                             .                  ",
"                             .                  ",
"                             .                  ",
"                                                ",
"                                                "};
